<?xml version="1.0" encoding="UTF-8" standalone="no"?>
<!DOCTYPE svg PUBLIC "-//W3C//DTD SVG 1.1//EN"
 "http://www.w3.org/Graphics/SVG/1.1/DTD/svg11.dtd">
<!-- Generated by graphviz version 2.43.0 (0)
 -->
<!-- Title: %3 Pages: 1 -->
<svg width="659pt" height="116pt"
 viewBox="0.00 0.00 659.20 116.00" xmlns="http://www.w3.org/2000/svg" xmlns:xlink="http://www.w3.org/1999/xlink">
<g id="graph0" class="graph" transform="scale(1 1) rotate(0) translate(4 112)">
<title>%3</title>
<!-- Start -->
<!-- FlattenFA -->
<g id="node3" class="node start">
<title>FlattenFA</title>
<path fill="#586e75" stroke="#586e75" d="M116.6,-108C116.6,-108 52.6,-108 52.6,-108 46.6,-108 40.6,-102 40.6,-96 40.6,-96 40.6,-84 40.6,-84 40.6,-78 46.6,-72 52.6,-72 52.6,-72 116.6,-72 116.6,-72 122.6,-72 128.6,-78 128.6,-84 128.6,-84 128.6,-96 128.6,-96 128.6,-102 122.6,-108 116.6,-108"/>
<text text-anchor="middle" x="84.6" y="-86.3" font-family="Inter,Arial" font-size="14.00" fill="#ffffff">Flatten[F, A]</text>
</g>
<!-- Start&#45;&gt;FlattenFA -->
<g id="edge6" class="edge start">
<title>Start&#45;&gt;FlattenFA</title>
<path fill="none" stroke="#586e75" stroke-width="2" d="M3.71,-90C6.8,-90 17.43,-90 29.97,-90"/>
<polygon fill="#586e75" stroke="#586e75" stroke-width="2" points="30.33,-93.5 40.33,-90 30.33,-86.5 30.33,-93.5"/>
</g>
<!-- Goal -->
<!-- FFreeFA -->
<g id="node6" class="node">
<title>FFreeFA</title>
<path fill="#ffffff" stroke="#586e75" d="M279.6,-108C279.6,-108 213.6,-108 213.6,-108 207.6,-108 201.6,-102 201.6,-96 201.6,-96 201.6,-84 201.6,-84 201.6,-78 207.6,-72 213.6,-72 213.6,-72 279.6,-72 279.6,-72 285.6,-72 291.6,-78 291.6,-84 291.6,-84 291.6,-96 291.6,-96 291.6,-102 285.6,-108 279.6,-108"/>
<text text-anchor="middle" x="246.6" y="-86.3" font-family="Inter,Arial" font-size="14.00" fill="#586e75">F[Free[F, A]]</text>
</g>
<!-- FlattenFA&#45;&gt;FFreeFA -->
<g id="edge4" class="edge">
<title>FlattenFA&#45;&gt;FFreeFA</title>
<path fill="none" stroke="#586e75" d="M128.9,-90C148.14,-90 170.99,-90 191.35,-90"/>
<polygon fill="#586e75" stroke="#586e75" points="191.43,-93.5 201.43,-90 191.43,-86.5 191.43,-93.5"/>
<text text-anchor="middle" x="165.1" y="-93.2" font-family="Inter,Arial" font-size="11.00" fill="#586e75">unwrap</text>
</g>
<!-- FreeFA -->
<g id="node4" class="node">
<title>FreeFA</title>
<path fill="#ffffff" stroke="#586e75" d="M419.6,-36C419.6,-36 366.6,-36 366.6,-36 360.6,-36 354.6,-30 354.6,-24 354.6,-24 354.6,-12 354.6,-12 354.6,-6 360.6,0 366.6,0 366.6,0 419.6,0 419.6,0 425.6,0 431.6,-6 431.6,-12 431.6,-12 431.6,-24 431.6,-24 431.6,-30 425.6,-36 419.6,-36"/>
<text text-anchor="middle" x="393.1" y="-14.3" font-family="Inter,Arial" font-size="14.00" fill="#586e75">Free[F[A]]</text>
</g>
<!-- GA -->
<g id="node5" class="node goal">
<title>GA</title>
<path fill="#586e75" stroke="#586e75" d="M598.6,-108C598.6,-108 568.6,-108 568.6,-108 562.6,-108 556.6,-102 556.6,-96 556.6,-96 556.6,-84 556.6,-84 556.6,-78 562.6,-72 568.6,-72 568.6,-72 598.6,-72 598.6,-72 604.6,-72 610.6,-78 610.6,-84 610.6,-84 610.6,-96 610.6,-96 610.6,-102 604.6,-108 598.6,-108"/>
<text text-anchor="middle" x="583.6" y="-86.3" font-family="Inter,Arial" font-size="14.00" fill="#ffffff">G[A]</text>
</g>
<!-- FreeFA&#45;&gt;GA -->
<g id="edge5" class="edge">
<title>FreeFA&#45;&gt;GA</title>
<path fill="none" stroke="#586e75" d="M431.79,-32.4C465.29,-45.19 513.9,-63.76 546.81,-76.33"/>
<polygon fill="#586e75" stroke="#586e75" points="545.89,-79.73 556.48,-80.02 548.39,-73.19 545.89,-79.73"/>
<text text-anchor="middle" x="498.1" y="-75.2" font-family="Inter,Arial" font-size="11.00" fill="#586e75">evalM</text>
</g>
<!-- GA&#45;&gt;Goal -->
<g id="edge7" class="edge goal">
<title>GA&#45;&gt;Goal</title>
<path fill="none" stroke="#586e75" stroke-width="2" d="M610.92,-90C620.17,-90 630.07,-90 637.37,-90"/>
<polygon fill="#586e75" stroke="#586e75" stroke-width="2" points="637.51,-93.5 647.51,-90 637.51,-86.5 637.51,-93.5"/>
</g>
<!-- GFreeFA -->
<g id="node7" class="node">
<title>GFreeFA</title>
<path fill="#ffffff" stroke="#586e75" d="M427.6,-108C427.6,-108 358.6,-108 358.6,-108 352.6,-108 346.6,-102 346.6,-96 346.6,-96 346.6,-84 346.6,-84 346.6,-78 352.6,-72 358.6,-72 358.6,-72 427.6,-72 427.6,-72 433.6,-72 439.6,-78 439.6,-84 439.6,-84 439.6,-96 439.6,-96 439.6,-102 433.6,-108 427.6,-108"/>
<text text-anchor="middle" x="393.1" y="-86.3" font-family="Inter,Arial" font-size="14.00" fill="#586e75">G[Free[F, A]]</text>
</g>
<!-- FFreeFA&#45;&gt;GFreeFA -->
<g id="edge3" class="edge">
<title>FFreeFA&#45;&gt;GFreeFA</title>
<path fill="none" stroke="#586e75" d="M291.74,-90C305.83,-90 321.62,-90 336.42,-90"/>
<polygon fill="#586e75" stroke="#586e75" points="336.48,-93.5 346.48,-90 336.48,-86.5 336.48,-93.5"/>
<text text-anchor="middle" x="319.1" y="-93.2" font-family="Inter,Arial" font-size="11.00" fill="#586e75">???</text>
</g>
<!-- GFreeFA&#45;&gt;FreeFA -->
<g id="edge1" class="edge lift">
<title>GFreeFA&#45;&gt;FreeFA</title>
<path fill="none" stroke="#586e75" stroke-dasharray="5,2" d="M393.1,-61.92C393.1,-53.37 393.1,-44.83 393.1,-36.28"/>
<polygon fill="#586e75" stroke="#586e75" points="389.6,-61.95 393.1,-71.95 396.6,-61.95 389.6,-61.95"/>
</g>
<!-- GFreeFA&#45;&gt;GA -->
<g id="edge2" class="edge">
<title>GFreeFA&#45;&gt;GA</title>
<path fill="none" stroke="#586e75" d="M439.73,-90C472.48,-90 516.01,-90 546.38,-90"/>
<polygon fill="#586e75" stroke="#586e75" points="546.54,-93.5 556.54,-90 546.54,-86.5 546.54,-93.5"/>
<text text-anchor="middle" x="498.1" y="-93.2" font-family="Inter,Arial" font-size="11.00" fill="#586e75">_.flatMap(evalM)</text>
</g>
</g>
</svg>
