<?xml version="1.0" encoding="UTF-8" standalone="no"?>
<!DOCTYPE svg PUBLIC "-//W3C//DTD SVG 1.1//EN"
 "http://www.w3.org/Graphics/SVG/1.1/DTD/svg11.dtd">
<!-- Generated by graphviz version 2.43.0 (0)
 -->
<!-- Title: %3 Pages: 1 -->
<svg width="403pt" height="44pt"
 viewBox="0.00 0.00 403.20 44.00" xmlns="http://www.w3.org/2000/svg" xmlns:xlink="http://www.w3.org/1999/xlink">
<g id="graph0" class="graph" transform="scale(1 1) rotate(0) translate(4 40)">
<title>%3</title>
<!-- Start -->
<!-- PureFFreeA -->
<g id="node3" class="node start">
<title>PureFFreeA</title>
<path fill="#586e75" stroke="#586e75" d="M103.6,-36C103.6,-36 52.6,-36 52.6,-36 46.6,-36 40.6,-30 40.6,-24 40.6,-24 40.6,-12 40.6,-12 40.6,-6 46.6,0 52.6,0 52.6,0 103.6,0 103.6,0 109.6,0 115.6,-6 115.6,-12 115.6,-12 115.6,-24 115.6,-24 115.6,-30 109.6,-36 103.6,-36"/>
<text text-anchor="middle" x="78.1" y="-14.3" font-family="Inter,Arial" font-size="14.00" fill="#ffffff">Pure[F, A]</text>
</g>
<!-- Start&#45;&gt;PureFFreeA -->
<g id="edge3" class="edge start">
<title>Start&#45;&gt;PureFFreeA</title>
<path fill="none" stroke="#586e75" stroke-width="2" d="M3.63,-18C6.68,-18 17.67,-18 30.26,-18"/>
<polygon fill="#586e75" stroke="#586e75" stroke-width="2" points="30.58,-21.5 40.58,-18 30.58,-14.5 30.58,-21.5"/>
</g>
<!-- Goal -->
<!-- A -->
<g id="node5" class="node">
<title>A</title>
<path fill="#ffffff" stroke="#586e75" d="M230.6,-36C230.6,-36 200.6,-36 200.6,-36 194.6,-36 188.6,-30 188.6,-24 188.6,-24 188.6,-12 188.6,-12 188.6,-6 194.6,0 200.6,0 200.6,0 230.6,0 230.6,0 236.6,0 242.6,-6 242.6,-12 242.6,-12 242.6,-24 242.6,-24 242.6,-30 236.6,-36 230.6,-36"/>
<text text-anchor="middle" x="215.6" y="-14.3" font-family="Inter,Arial" font-size="14.00" fill="#586e75">A</text>
</g>
<!-- PureFFreeA&#45;&gt;A -->
<g id="edge1" class="edge">
<title>PureFFreeA&#45;&gt;A</title>
<path fill="none" stroke="#586e75" d="M115.77,-18C135.08,-18 158.69,-18 177.99,-18"/>
<polygon fill="#586e75" stroke="#586e75" points="178.22,-21.5 188.22,-18 178.22,-14.5 178.22,-21.5"/>
<text text-anchor="middle" x="152.1" y="-21.2" font-family="Inter,Arial" font-size="11.00" fill="#586e75">unwrap</text>
</g>
<!-- GA -->
<g id="node4" class="node goal">
<title>GA</title>
<path fill="#586e75" stroke="#586e75" d="M342.6,-36C342.6,-36 312.6,-36 312.6,-36 306.6,-36 300.6,-30 300.6,-24 300.6,-24 300.6,-12 300.6,-12 300.6,-6 306.6,0 312.6,0 312.6,0 342.6,0 342.6,0 348.6,0 354.6,-6 354.6,-12 354.6,-12 354.6,-24 354.6,-24 354.6,-30 348.6,-36 342.6,-36"/>
<text text-anchor="middle" x="327.6" y="-14.3" font-family="Inter,Arial" font-size="14.00" fill="#ffffff">G[A]</text>
</g>
<!-- GA&#45;&gt;Goal -->
<g id="edge4" class="edge goal">
<title>GA&#45;&gt;Goal</title>
<path fill="none" stroke="#586e75" stroke-width="2" d="M354.92,-18C364.17,-18 374.07,-18 381.37,-18"/>
<polygon fill="#586e75" stroke="#586e75" stroke-width="2" points="381.51,-21.5 391.51,-18 381.51,-14.5 381.51,-21.5"/>
</g>
<!-- A&#45;&gt;GA -->
<g id="edge2" class="edge">
<title>A&#45;&gt;GA</title>
<path fill="none" stroke="#586e75" d="M242.67,-18C256.81,-18 274.52,-18 290.03,-18"/>
<polygon fill="#586e75" stroke="#586e75" points="290.34,-21.5 300.34,-18 290.34,-14.5 290.34,-21.5"/>
<text text-anchor="middle" x="271.6" y="-21.2" font-family="Inter,Arial" font-size="11.00" fill="#586e75">pure</text>
</g>
</g>
</svg>
