<?xml version="1.0" encoding="UTF-8" standalone="no"?>
<!DOCTYPE svg PUBLIC "-//W3C//DTD SVG 1.1//EN"
 "http://www.w3.org/Graphics/SVG/1.1/DTD/svg11.dtd">
<!-- Generated by graphviz version 2.43.0 (0)
 -->
<!-- Title: %3 Pages: 1 -->
<svg width="251pt" height="44pt"
 viewBox="0.00 0.00 251.20 44.00" xmlns="http://www.w3.org/2000/svg" xmlns:xlink="http://www.w3.org/1999/xlink">
<g id="graph0" class="graph" transform="scale(1 1) rotate(0) translate(4 40)">
<title>%3</title>
<!-- Start -->
<!-- A -->
<g id="node3" class="node start,disabled">
<title>A</title>
<path fill="#d0dce3" stroke="#d0dce3" d="M82.6,-36C82.6,-36 52.6,-36 52.6,-36 46.6,-36 40.6,-30 40.6,-24 40.6,-24 40.6,-12 40.6,-12 40.6,-6 46.6,0 52.6,0 52.6,0 82.6,0 82.6,0 88.6,0 94.6,-6 94.6,-12 94.6,-12 94.6,-24 94.6,-24 94.6,-30 88.6,-36 82.6,-36"/>
<text text-anchor="middle" x="67.6" y="-14.3" font-family="Inter,Arial" font-size="14.00" fill="#ffffff">A</text>
</g>
<!-- Start&#45;&gt;A -->
<g id="edge2" class="edge start,disabled">
<title>Start&#45;&gt;A</title>
<path fill="none" stroke="#d0dce3" stroke-width="2" d="M3.91,-18C7.37,-18 18.49,-18 30.42,-18"/>
<polygon fill="#d0dce3" stroke="#d0dce3" stroke-width="2" points="30.48,-21.5 40.48,-18 30.48,-14.5 30.48,-21.5"/>
</g>
<!-- End -->
<!-- ConsoleFB -->
<g id="node4" class="node goal">
<title>ConsoleFB</title>
<path fill="#586e75" stroke="#586e75" d="M190.6,-36C190.6,-36 146.6,-36 146.6,-36 140.6,-36 134.6,-30 134.6,-24 134.6,-24 134.6,-12 134.6,-12 134.6,-6 140.6,0 146.6,0 146.6,0 190.6,0 190.6,0 196.6,0 202.6,-6 202.6,-12 202.6,-12 202.6,-24 202.6,-24 202.6,-30 196.6,-36 190.6,-36"/>
<text text-anchor="middle" x="168.6" y="-14.3" font-family="Inter,Arial" font-size="14.00" fill="#ffffff">Chain[B]</text>
</g>
<!-- A&#45;&gt;ConsoleFB -->
<!-- ConsoleFB&#45;&gt;End -->
<g id="edge3" class="edge goal">
<title>ConsoleFB&#45;&gt;End</title>
<path fill="none" stroke="#586e75" stroke-width="2" d="M202.93,-18C212.47,-18 222.21,-18 229.37,-18"/>
<polygon fill="#586e75" stroke="#586e75" stroke-width="2" points="229.54,-21.5 239.54,-18 229.54,-14.5 229.54,-21.5"/>
</g>
</g>
</svg>
