<?xml version="1.0" encoding="UTF-8" standalone="no"?>
<!DOCTYPE svg PUBLIC "-//W3C//DTD SVG 1.1//EN"
 "http://www.w3.org/Graphics/SVG/1.1/DTD/svg11.dtd">
<!-- Generated by graphviz version 2.43.0 (0)
 -->
<!-- Title: %3 Pages: 1 -->
<svg width="595pt" height="188pt"
 viewBox="0.00 0.00 595.20 188.00" xmlns="http://www.w3.org/2000/svg" xmlns:xlink="http://www.w3.org/1999/xlink">
<g id="graph0" class="graph" transform="scale(1 1) rotate(0) translate(4 184)">
<title>%3</title>
<!-- Start -->
<!-- ConsoleConsoleFA -->
<g id="node6" class="node start">
<title>ConsoleConsoleFA</title>
<path fill="#586e75" stroke="#586e75" d="M153.6,-180C153.6,-180 52.6,-180 52.6,-180 46.6,-180 40.6,-174 40.6,-168 40.6,-168 40.6,-156 40.6,-156 40.6,-150 46.6,-144 52.6,-144 52.6,-144 153.6,-144 153.6,-144 159.6,-144 165.6,-150 165.6,-156 165.6,-156 165.6,-168 165.6,-168 165.6,-174 159.6,-180 153.6,-180"/>
<text text-anchor="middle" x="103.1" y="-158.3" font-family="Inter,Arial" font-size="14.00" fill="#ffffff">Console[Chain[A]]</text>
</g>
<!-- Start&#45;&gt;ConsoleConsoleFA -->
<g id="edge8" class="edge start">
<title>Start&#45;&gt;ConsoleConsoleFA</title>
<path fill="none" stroke="#586e75" stroke-width="2" d="M3.92,-162C7.23,-162 17.57,-162 30.38,-162"/>
<polygon fill="#586e75" stroke="#586e75" stroke-width="2" points="30.57,-165.5 40.57,-162 30.57,-158.5 30.57,-165.5"/>
</g>
<!-- End -->
<!-- ConsoleFB2 -->
<g id="node3" class="node goal,disabled">
<title>ConsoleFB2</title>
<path fill="#d0dce3" stroke="#d0dce3" d="M534.6,-180C534.6,-180 490.6,-180 490.6,-180 484.6,-180 478.6,-174 478.6,-168 478.6,-168 478.6,-156 478.6,-156 478.6,-150 484.6,-144 490.6,-144 490.6,-144 534.6,-144 534.6,-144 540.6,-144 546.6,-150 546.6,-156 546.6,-156 546.6,-168 546.6,-168 546.6,-174 540.6,-180 534.6,-180"/>
<text text-anchor="middle" x="512.6" y="-158.3" font-family="Inter,Arial" font-size="14.00" fill="#ffffff">Chain[B]</text>
</g>
<!-- ConsoleFB2&#45;&gt;End -->
<g id="edge9" class="edge goal,disabled">
<title>ConsoleFB2&#45;&gt;End</title>
<path fill="none" stroke="#d0dce3" stroke-width="2" d="M546.93,-162C556.47,-162 566.21,-162 573.37,-162"/>
<polygon fill="#d0dce3" stroke="#d0dce3" stroke-width="2" points="573.54,-165.5 583.54,-162 573.54,-158.5 573.54,-165.5"/>
</g>
<!-- ConsoleFA -->
<g id="node4" class="node">
<title>ConsoleFA</title>
<path fill="#ffffff" stroke="#586e75" d="M125.1,-108C125.1,-108 81.1,-108 81.1,-108 75.1,-108 69.1,-102 69.1,-96 69.1,-96 69.1,-84 69.1,-84 69.1,-78 75.1,-72 81.1,-72 81.1,-72 125.1,-72 125.1,-72 131.1,-72 137.1,-78 137.1,-84 137.1,-84 137.1,-96 137.1,-96 137.1,-102 131.1,-108 125.1,-108"/>
<text text-anchor="middle" x="103.1" y="-86.3" font-family="Inter,Arial" font-size="14.00" fill="#586e75">Chain[A]</text>
</g>
<!-- ConsoleFB -->
<g id="node5" class="node">
<title>ConsoleFB</title>
<path fill="#ffffff" stroke="#586e75" d="M379.1,-108C379.1,-108 335.1,-108 335.1,-108 329.1,-108 323.1,-102 323.1,-96 323.1,-96 323.1,-84 323.1,-84 323.1,-78 329.1,-72 335.1,-72 335.1,-72 379.1,-72 379.1,-72 385.1,-72 391.1,-78 391.1,-84 391.1,-84 391.1,-96 391.1,-96 391.1,-102 385.1,-108 379.1,-108"/>
<text text-anchor="middle" x="357.1" y="-86.3" font-family="Inter,Arial" font-size="14.00" fill="#586e75">Chain[B]</text>
</g>
<!-- ConsoleFA&#45;&gt;ConsoleFB -->
<g id="edge3" class="edge">
<title>ConsoleFA&#45;&gt;ConsoleFB</title>
<path fill="none" stroke="#586e75" d="M137.3,-90C182.35,-90 262.9,-90 312.69,-90"/>
<polygon fill="#586e75" stroke="#586e75" points="312.82,-93.5 322.82,-90 312.82,-86.5 312.82,-93.5"/>
<text text-anchor="middle" x="230.1" y="-93.2" font-family="Inter,Arial" font-size="11.00" fill="#586e75">_.flatMap(f)</text>
</g>
<!-- A -->
<g id="node8" class="node disabled">
<title>A</title>
<path fill="#ffffff" stroke="#d0dce3" d="M118.1,-36C118.1,-36 88.1,-36 88.1,-36 82.1,-36 76.1,-30 76.1,-24 76.1,-24 76.1,-12 76.1,-12 76.1,-6 82.1,0 88.1,0 88.1,0 118.1,0 118.1,0 124.1,0 130.1,-6 130.1,-12 130.1,-12 130.1,-24 130.1,-24 130.1,-30 124.1,-36 118.1,-36"/>
<text text-anchor="middle" x="103.1" y="-14.3" font-family="Inter,Arial" font-size="14.00" fill="#d0dce3">A</text>
</g>
<!-- ConsoleFA&#45;&gt;A -->
<g id="edge5" class="edge lift,disabled">
<title>ConsoleFA&#45;&gt;A</title>
<path fill="none" stroke="#d0dce3" stroke-dasharray="5,2" d="M103.1,-61.92C103.1,-53.37 103.1,-44.83 103.1,-36.28"/>
<polygon fill="#d0dce3" stroke="#d0dce3" points="99.6,-61.95 103.1,-71.95 106.6,-61.95 99.6,-61.95"/>
</g>
<!-- ConsoleConsoleFA&#45;&gt;ConsoleFA -->
<g id="edge6" class="edge lift">
<title>ConsoleConsoleFA&#45;&gt;ConsoleFA</title>
<path fill="none" stroke="#586e75" stroke-dasharray="5,2" d="M103.1,-133.92C103.1,-125.37 103.1,-116.83 103.1,-108.28"/>
<polygon fill="#586e75" stroke="#586e75" points="99.6,-133.95 103.1,-143.95 106.6,-133.95 99.6,-133.95"/>
</g>
<!-- ConsoleConsoleFB -->
<g id="node7" class="node">
<title>ConsoleConsoleFB</title>
<path fill="#ffffff" stroke="#586e75" d="M407.6,-180C407.6,-180 306.6,-180 306.6,-180 300.6,-180 294.6,-174 294.6,-168 294.6,-168 294.6,-156 294.6,-156 294.6,-150 300.6,-144 306.6,-144 306.6,-144 407.6,-144 407.6,-144 413.6,-144 419.6,-150 419.6,-156 419.6,-156 419.6,-168 419.6,-168 419.6,-174 413.6,-180 407.6,-180"/>
<text text-anchor="middle" x="357.1" y="-158.3" font-family="Inter,Arial" font-size="14.00" fill="#586e75">Console[Chain[B]]</text>
</g>
<!-- ConsoleConsoleFA&#45;&gt;ConsoleConsoleFB -->
<g id="edge4" class="edge">
<title>ConsoleConsoleFA&#45;&gt;ConsoleConsoleFB</title>
<path fill="none" stroke="#586e75" d="M165.75,-162C201.44,-162 246.55,-162 283.9,-162"/>
<polygon fill="#586e75" stroke="#586e75" points="284.22,-165.5 294.22,-162 284.22,-158.5 284.22,-165.5"/>
<text text-anchor="middle" x="230.1" y="-165.2" font-family="Inter,Arial" font-size="11.00" fill="#586e75">_.map(_.flatMap(f))</text>
</g>
<!-- ConsoleConsoleFB&#45;&gt;ConsoleFB2 -->
<g id="edge2" class="edge disabled">
<title>ConsoleConsoleFB&#45;&gt;ConsoleFB2</title>
<path fill="none" stroke="#d0dce3" d="M419.65,-162C435.91,-162 453.13,-162 468.21,-162"/>
<polygon fill="#d0dce3" stroke="#d0dce3" points="468.27,-165.5 478.27,-162 468.27,-158.5 468.27,-165.5"/>
<text text-anchor="middle" x="449.1" y="-165.2" font-family="Inter,Arial" font-size="11.00" fill="#d0dce3">Next</text>
</g>
<!-- ConsoleConsoleFB&#45;&gt;ConsoleFB -->
<g id="edge7" class="edge lift">
<title>ConsoleConsoleFB&#45;&gt;ConsoleFB</title>
<path fill="none" stroke="#586e75" stroke-dasharray="5,2" d="M357.1,-133.92C357.1,-125.37 357.1,-116.83 357.1,-108.28"/>
<polygon fill="#586e75" stroke="#586e75" points="353.6,-133.95 357.1,-143.95 360.6,-133.95 353.6,-133.95"/>
</g>
<!-- A&#45;&gt;ConsoleFB -->
<g id="edge1" class="edge disabled">
<title>A&#45;&gt;ConsoleFB</title>
<path fill="none" stroke="#d0dce3" d="M130.12,-25.43C173.48,-37.82 260.91,-62.8 313.4,-77.8"/>
<polygon fill="#d0dce3" stroke="#d0dce3" points="312.52,-81.19 323.1,-80.57 314.44,-74.46 312.52,-81.19"/>
<text text-anchor="middle" x="230.1" y="-70.2" font-family="Inter,Arial" font-size="11.00" fill="#d0dce3">f</text>
</g>
</g>
</svg>
