<?xml version="1.0" encoding="UTF-8" standalone="no"?>
<!DOCTYPE svg PUBLIC "-//W3C//DTD SVG 1.1//EN"
 "http://www.w3.org/Graphics/SVG/1.1/DTD/svg11.dtd">
<!-- Generated by graphviz version 2.43.0 (0)
 -->
<!-- Title: %3 Pages: 1 -->
<svg width="355pt" height="116pt"
 viewBox="0.00 0.00 355.20 116.00" xmlns="http://www.w3.org/2000/svg" xmlns:xlink="http://www.w3.org/1999/xlink">
<g id="graph0" class="graph" transform="scale(1 1) rotate(0) translate(4 112)">
<title>%3</title>
<!-- Start -->
<!-- ChainUnit -->
<g id="node5" class="node start">
<title>ChainUnit</title>
<path fill="#586e75" stroke="#586e75" d="M108.6,-108C108.6,-108 52.6,-108 52.6,-108 46.6,-108 40.6,-102 40.6,-96 40.6,-96 40.6,-84 40.6,-84 40.6,-78 46.6,-72 52.6,-72 52.6,-72 108.6,-72 108.6,-72 114.6,-72 120.6,-78 120.6,-84 120.6,-84 120.6,-96 120.6,-96 120.6,-102 114.6,-108 108.6,-108"/>
<text text-anchor="middle" x="80.6" y="-86.3" font-family="Inter,Arial" font-size="14.00" fill="#ffffff">Chain[Unit</text>
</g>
<!-- Start&#45;&gt;ChainUnit -->
<g id="edge4" class="edge start">
<title>Start&#45;&gt;ChainUnit</title>
<path fill="none" stroke="#586e75" stroke-width="2" d="M3.66,-90C6.73,-90 17.61,-90 30.22,-90"/>
<polygon fill="#586e75" stroke="#586e75" stroke-width="2" points="30.58,-93.5 40.58,-90 30.58,-86.5 30.58,-93.5"/>
</g>
<!-- Goal -->
<!-- Unit -->
<g id="node3" class="node disabled">
<title>Unit</title>
<path fill="#ffffff" stroke="#d0dce3" d="M95.6,-36C95.6,-36 65.6,-36 65.6,-36 59.6,-36 53.6,-30 53.6,-24 53.6,-24 53.6,-12 53.6,-12 53.6,-6 59.6,0 65.6,0 65.6,0 95.6,0 95.6,0 101.6,0 107.6,-6 107.6,-12 107.6,-12 107.6,-24 107.6,-24 107.6,-30 101.6,-36 95.6,-36"/>
<text text-anchor="middle" x="80.6" y="-14.3" font-family="Inter,Arial" font-size="14.00" fill="#d0dce3">Unit</text>
</g>
<!-- ChainString -->
<g id="node4" class="node disabled">
<title>ChainString</title>
<path fill="#ffffff" stroke="#d0dce3" d="M294.6,-36C294.6,-36 223.6,-36 223.6,-36 217.6,-36 211.6,-30 211.6,-24 211.6,-24 211.6,-12 211.6,-12 211.6,-6 217.6,0 223.6,0 223.6,0 294.6,0 294.6,0 300.6,0 306.6,-6 306.6,-12 306.6,-12 306.6,-24 306.6,-24 306.6,-30 300.6,-36 294.6,-36"/>
<text text-anchor="middle" x="259.1" y="-14.3" font-family="Inter,Arial" font-size="14.00" fill="#d0dce3">Chain[String]</text>
</g>
<!-- Unit&#45;&gt;ChainString -->
<g id="edge1" class="edge disabled">
<title>Unit&#45;&gt;ChainString</title>
<path fill="none" stroke="#d0dce3" d="M107.64,-18C132.11,-18 169.56,-18 200.97,-18"/>
<polygon fill="#d0dce3" stroke="#d0dce3" points="201.37,-21.5 211.37,-18 201.37,-14.5 201.37,-21.5"/>
<text text-anchor="middle" x="166.1" y="-21.2" font-family="Inter,Arial" font-size="11.00" fill="#d0dce3">f</text>
</g>
<!-- ChainString&#45;&gt;Goal -->
<!-- ChainUnit&#45;&gt;Unit -->
<!-- ChainUnit&#45;&gt;ChainString -->
</g>
</svg>
